<svg width="12" height="24" viewBox="0 0 12 24" fill="none" xmlns="http://www.w3.org/2000/svg">
<path d="M12.0004 15.0003L10.6004 12.0003H6.50037L6.00037 12.5003L5.50037 12.0003H1.40037L0.000366211 15.0003V21.0003H1.40037L0.000366211 24.0003H5.50037L6.00037 23.5003L6.50037 24.0003H12.0004L10.6004 21.0003H12.0004V15.0003ZM3.00037 21.0003H1.50037L3.00037 19.5003L1.50037 18.0003H3.00037V21.0003ZM10.5004 21.0003H9.00037V18.0003H10.5004L9.00037 19.5003L10.5004 21.0003Z" fill="#FF0099"/>
<path d="M8.14035 11.0003H6.00037H3.86035L6.00037 10.0003L8.14035 11.0003Z" fill="#FF0099"/>
<path d="M0.349609 6H0.110352L1.44043 12H0V4.5H2.59863L0.349609 6Z" fill="#FF0099"/>
<path d="M12 12H10.5605L11.8906 6H11.6514L9.40137 4.5H12V12Z" fill="#FF0099"/>
<path d="M4.5 6H2.15137L4.40234 4.5H4.5V6Z" fill="#FF0099"/>
<path d="M6.49512 2.5H11.7666L12 3V3.5H6.49512V6H5.49512V3.5H0V3L0.233398 2.5H5.49512V0H6.49512V2.5Z" fill="#FF0099"/>
<path d="M9.84961 6H7.5V4.5H7.59863L9.84961 6Z" fill="#FF0099"/>
<path d="M2.59766 1.5H0.700195L1.15039 0.53418L2.59766 1.5Z" fill="#FF0099"/>
<path d="M4.5 1.5H4.40234L2.15137 0H4.5V1.5Z" fill="#FF0099"/>
<path d="M7.59863 1.5H7.5V0H9.84961L7.59863 1.5Z" fill="#FF0099"/>
<path d="M11.3008 1.5H9.40234L10.8496 0.53418L11.3008 1.5Z" fill="#FF0099"/>
</svg>
