<svg width="85" height="169" viewBox="0 0 85 169" fill="none" xmlns="http://www.w3.org/2000/svg">
<g filter="url(#filter0_i_6506_586)">
<path d="M85 147.875H75.0833L85 169H46.0417L42.5 165.479L38.9583 169H0L9.91667 147.875H0V105.625L9.91667 84.5H38.9583L42.5 88.0208L46.0417 84.5H75.0833L85 105.625V147.875Z" fill="url(#paint0_linear_6506_586)"/>
<path d="M57.6585 70.4167L42.5001 77.4583L27.3418 70.4167L42.5001 63.375L57.6585 70.4167Z" fill="url(#paint1_linear_6506_586)"/>
<path d="M57.6585 63.3749H50.221L42.5001 59.8541L34.8501 63.3749H27.3418L42.5001 56.3333L57.6585 63.3749Z" fill="url(#paint2_linear_6506_586)"/>
<path d="M85 21.125V84.5H74.8L84.2208 42.25H0.779167L10.2 84.5H0V21.125L9.91667 0H75.0833L85 21.125Z" fill="url(#paint3_linear_6506_586)"/>
</g>
<defs>
<filter id="filter0_i_6506_586" x="0" y="-2" width="85" height="171" filterUnits="userSpaceOnUse" color-interpolation-filters="sRGB">
<feFlood flood-opacity="0" result="BackgroundImageFix"/>
<feBlend mode="normal" in="SourceGraphic" in2="BackgroundImageFix" result="shape"/>
<feColorMatrix in="SourceAlpha" type="matrix" values="0 0 0 0 0 0 0 0 0 0 0 0 0 0 0 0 0 0 127 0" result="hardAlpha"/>
<feOffset dy="-2"/>
<feGaussianBlur stdDeviation="2.5"/>
<feComposite in2="hardAlpha" operator="arithmetic" k2="-1" k3="1"/>
<feColorMatrix type="matrix" values="0 0 0 0 1 0 0 0 0 0.780392 0 0 0 0 0.752941 0 0 0 1 0"/>
<feBlend mode="normal" in2="shape" result="effect1_innerShadow_6506_586"/>
</filter>
<linearGradient id="paint0_linear_6506_586" x1="42.5" y1="84.5" x2="42.5" y2="169" gradientUnits="userSpaceOnUse">
<stop stop-color="#FFC7C0"/>
<stop offset="0.442308" stop-color="#FF1F00"/>
<stop offset="1" stop-color="#FF1F00"/>
</linearGradient>
<linearGradient id="paint1_linear_6506_586" x1="42.5001" y1="63.375" x2="42.5001" y2="77.4583" gradientUnits="userSpaceOnUse">
<stop stop-color="#FFC7C0"/>
<stop offset="0.442308" stop-color="#FF1F00"/>
<stop offset="1" stop-color="#FF1F00"/>
</linearGradient>
<linearGradient id="paint2_linear_6506_586" x1="42.5001" y1="56.3333" x2="42.5001" y2="63.3749" gradientUnits="userSpaceOnUse">
<stop stop-color="#FFC7C0"/>
<stop offset="0.442308" stop-color="#FF1F00"/>
<stop offset="1" stop-color="#FF1F00"/>
</linearGradient>
<linearGradient id="paint3_linear_6506_586" x1="42.5" y1="0" x2="42.5" y2="84.5" gradientUnits="userSpaceOnUse">
<stop stop-color="#FFC7C0"/>
<stop offset="0.442308" stop-color="#FF1F00"/>
<stop offset="1" stop-color="#FF1F00"/>
</linearGradient>
</defs>
</svg>
