<svg width="126" height="169" viewBox="0 0 126 169" fill="none" xmlns="http://www.w3.org/2000/svg">
<g filter="url(#filter0_i_6344_907)">
<path d="M105 147.875H95.2L105 169H66.5L63 165.479L59.5 169H21L30.8 147.875H21V105.625L30.8 84.5H59.5L63 88.0208L66.5 84.5H95.2L105 105.625V147.875Z" fill="url(#paint0_linear_6344_907)"/>
<path d="M77.9795 70.4167L62.9995 77.4583L48.0195 70.4167L62.9995 63.375L77.9795 70.4167Z" fill="url(#paint1_linear_6344_907)"/>
<path d="M126 45.2779V84.5H94.5V42.25H31.5V84.5H0V45.2779L21 0H105L126 45.2779Z" fill="url(#paint2_linear_6344_907)"/>
</g>
<defs>
<filter id="filter0_i_6344_907" x="0" y="-2" width="126" height="171" filterUnits="userSpaceOnUse" color-interpolation-filters="sRGB">
<feFlood flood-opacity="0" result="BackgroundImageFix"/>
<feBlend mode="normal" in="SourceGraphic" in2="BackgroundImageFix" result="shape"/>
<feColorMatrix in="SourceAlpha" type="matrix" values="0 0 0 0 0 0 0 0 0 0 0 0 0 0 0 0 0 0 127 0" result="hardAlpha"/>
<feOffset dy="-2"/>
<feGaussianBlur stdDeviation="2.5"/>
<feComposite in2="hardAlpha" operator="arithmetic" k2="-1" k3="1"/>
<feColorMatrix type="matrix" values="0 0 0 0 1 0 0 0 0 0.717647 0 0 0 0 0.886275 0 0 0 1 0"/>
<feBlend mode="normal" in2="shape" result="effect1_innerShadow_6344_907"/>
</filter>
<linearGradient id="paint0_linear_6344_907" x1="63" y1="84.5" x2="63" y2="169" gradientUnits="userSpaceOnUse">
<stop stop-color="#FFB7E2"/>
<stop offset="0.442308" stop-color="#FF0099"/>
<stop offset="1" stop-color="#FF0099"/>
</linearGradient>
<linearGradient id="paint1_linear_6344_907" x1="62.9995" y1="63.375" x2="62.9995" y2="77.4583" gradientUnits="userSpaceOnUse">
<stop stop-color="#FFB7E2"/>
<stop offset="0.442308" stop-color="#FF0099"/>
<stop offset="1" stop-color="#FF0099"/>
</linearGradient>
<linearGradient id="paint2_linear_6344_907" x1="63" y1="0" x2="63" y2="84.5" gradientUnits="userSpaceOnUse">
<stop stop-color="#FFB7E2"/>
<stop offset="0.442308" stop-color="#FF0099"/>
<stop offset="1" stop-color="#FF0099"/>
</linearGradient>
</defs>
</svg>
