<svg width="84" height="169" viewBox="0 0 84 169" fill="none" xmlns="http://www.w3.org/2000/svg">
<g filter="url(#filter0_i_6506_1129)">
<path d="M84 147.875H74.2L84 169H45.5L42 165.479L38.5 169H0L9.8 147.875H0V105.625L9.8 84.5H38.5L42 88.0208L45.5 84.5H74.2L84 105.625V147.875Z" fill="url(#paint0_linear_6506_1129)"/>
<path d="M56.9795 77.4582H41.9996H27.0195L41.9996 70.4165L56.9795 77.4582Z" fill="url(#paint1_linear_6506_1129)"/>
<path d="M10.5 84.5H0V56.3333C1.10868 55.4039 2.24514 54.5237 3.39746 53.679L10.5 84.5Z" fill="url(#paint2_linear_6506_1129)"/>
<path d="M80.5889 53.679C81.7443 54.5256 82.8885 55.4015 84 56.3333V84.5H73.5L80.5889 53.679Z" fill="url(#paint3_linear_6506_1129)"/>
<path d="M0 42.25C24.3298 21.8545 59.6702 21.8545 84 42.25V49.2917C83.3333 48.7328 82.6525 48.197 81.9697 47.6688C81.9517 47.6548 81.9399 47.6415 81.9219 47.6275C81.4176 47.2381 80.9032 46.8656 80.3906 46.4929C80.1273 46.3014 79.8699 46.1023 79.6045 45.9152C79.0908 45.5532 78.5673 45.2086 78.0459 44.8631C77.7764 44.6845 77.5107 44.5009 77.2393 44.3267C76.783 44.034 76.3201 43.7543 75.8584 43.474C75.5123 43.2639 75.1683 43.0514 74.8193 42.8483C74.3514 42.576 73.8772 42.3172 73.4043 42.0575C73.0791 41.8788 72.7543 41.7006 72.4268 41.528C71.8851 41.2424 71.3406 40.9652 70.793 40.6959C70.5474 40.5751 70.3014 40.4558 70.0547 40.3383C69.4064 40.0296 68.7554 39.7305 68.0996 39.4443C67.9563 39.3818 67.8126 39.3201 67.6689 39.2587C67.0426 38.9907 66.4148 38.729 65.7822 38.4816C65.4716 38.3601 65.1578 38.2475 64.8457 38.1309C64.339 37.9416 63.8315 37.757 63.3213 37.5808C62.996 37.4684 62.6704 37.3578 62.3438 37.2507C61.7215 37.0467 61.0975 36.8509 60.4707 36.6662C60.3295 36.6245 60.1883 36.5831 60.0469 36.5424C59.3248 36.3349 58.6003 36.1399 57.873 35.9579C57.6869 35.9113 57.499 35.8722 57.3125 35.8272C56.6959 35.6787 56.0797 35.5312 55.46 35.4009C54.9917 35.3023 54.5217 35.214 54.0518 35.1258C53.6553 35.0515 53.2598 34.9727 52.8623 34.9058C52.3758 34.8238 51.8873 34.7566 51.3994 34.6857C50.9575 34.6215 50.5161 34.5551 50.0732 34.5C49.7752 34.463 49.4761 34.4367 49.1777 34.4038C48.5491 34.3344 47.921 34.2623 47.291 34.2112C47.2408 34.2071 47.1908 34.2014 47.1406 34.1975C43.7487 33.9303 40.3404 33.928 36.9482 34.1906C36.8616 34.1973 36.7751 34.2042 36.6885 34.2112C36.0951 34.2595 35.5033 34.3255 34.9111 34.39C34.5717 34.427 34.2315 34.4577 33.8926 34.5C33.4929 34.5499 33.0952 34.6146 32.6963 34.672C32.1605 34.7489 31.624 34.8223 31.0898 34.9126C30.7492 34.9702 30.4111 35.0421 30.0713 35.1052C29.5331 35.205 28.9941 35.3012 28.458 35.4146C28.047 35.5016 27.6372 35.5947 27.2275 35.6897C26.7598 35.7982 26.292 35.9077 25.8262 36.0267C25.394 36.137 24.9645 36.258 24.5342 36.3774C24.0755 36.5046 23.6166 36.6319 23.1602 36.7693C22.7255 36.9002 22.2938 37.0418 21.8613 37.1819C21.4315 37.3212 21.0036 37.4667 20.5762 37.6152C20.1377 37.7674 19.6995 37.9209 19.2637 38.0828C18.8614 38.2322 18.4605 38.3859 18.0605 38.5435C17.5878 38.7298 17.1147 38.9165 16.6455 39.1143C16.2609 39.2764 15.8792 39.4464 15.4971 39.6163C15.0191 39.8286 14.5423 40.0451 14.0684 40.2695C13.7155 40.4366 13.3661 40.6115 13.0156 40.7853C12.5628 41.0098 12.1108 41.2373 11.6621 41.4729C11.2261 41.7019 10.7952 41.9417 10.3633 42.1812C9.99832 42.3836 9.63147 42.5834 9.26953 42.7933C8.80102 43.0649 8.33825 43.3479 7.875 43.6322C7.53148 43.843 7.18328 44.0471 6.84277 44.2649C6.38014 44.5606 5.92561 44.8709 5.46875 45.1794C5.13813 45.4028 4.80503 45.6233 4.47754 45.8534C4.02626 46.1703 3.58281 46.5002 3.1377 46.8298C2.81012 47.0724 2.47745 47.3093 2.15332 47.5588C2.10699 47.5944 2.06286 47.633 2.0166 47.6688C1.33791 48.1941 0.662791 48.7361 0 49.2917V42.25Z" fill="url(#paint4_linear_6506_1129)"/>
<path d="M84 21.125V35.2083C59.6702 14.8128 24.3298 14.8128 0 35.2083V21.125L23.8027 0H60.1973L84 21.125Z" fill="url(#paint5_linear_6506_1129)"/>
</g>
<defs>
<filter id="filter0_i_6506_1129" x="0" y="-2" width="84" height="171" filterUnits="userSpaceOnUse" color-interpolation-filters="sRGB">
<feFlood flood-opacity="0" result="BackgroundImageFix"/>
<feBlend mode="normal" in="SourceGraphic" in2="BackgroundImageFix" result="shape"/>
<feColorMatrix in="SourceAlpha" type="matrix" values="0 0 0 0 0 0 0 0 0 0 0 0 0 0 0 0 0 0 127 0" result="hardAlpha"/>
<feOffset dy="-2"/>
<feGaussianBlur stdDeviation="2.5"/>
<feComposite in2="hardAlpha" operator="arithmetic" k2="-1" k3="1"/>
<feColorMatrix type="matrix" values="0 0 0 0 0.937255 0 0 0 0 0.937255 0 0 0 0 0.937255 0 0 0 1 0"/>
<feBlend mode="normal" in2="shape" result="effect1_innerShadow_6506_1129"/>
</filter>
<linearGradient id="paint0_linear_6506_1129" x1="42" y1="84.5" x2="42" y2="169" gradientUnits="userSpaceOnUse">
<stop stop-color="#EFEFEF"/>
<stop offset="0.442308" stop-color="#6D6D6D"/>
<stop offset="1" stop-color="#6D6D6D"/>
</linearGradient>
<linearGradient id="paint1_linear_6506_1129" x1="41.9995" y1="70.4165" x2="41.9995" y2="77.4582" gradientUnits="userSpaceOnUse">
<stop stop-color="#EFEFEF"/>
<stop offset="0.442308" stop-color="#6D6D6D"/>
<stop offset="1" stop-color="#6D6D6D"/>
</linearGradient>
<linearGradient id="paint2_linear_6506_1129" x1="42" y1="0" x2="42" y2="84.5" gradientUnits="userSpaceOnUse">
<stop stop-color="#EFEFEF"/>
<stop offset="0.442308" stop-color="#6D6D6D"/>
<stop offset="1" stop-color="#6D6D6D"/>
</linearGradient>
<linearGradient id="paint3_linear_6506_1129" x1="42" y1="0" x2="42" y2="84.5" gradientUnits="userSpaceOnUse">
<stop stop-color="#EFEFEF"/>
<stop offset="0.442308" stop-color="#6D6D6D"/>
<stop offset="1" stop-color="#6D6D6D"/>
</linearGradient>
<linearGradient id="paint4_linear_6506_1129" x1="42" y1="0" x2="42" y2="84.5" gradientUnits="userSpaceOnUse">
<stop stop-color="#EFEFEF"/>
<stop offset="0.442308" stop-color="#6D6D6D"/>
<stop offset="1" stop-color="#6D6D6D"/>
</linearGradient>
<linearGradient id="paint5_linear_6506_1129" x1="42" y1="0" x2="42" y2="84.5" gradientUnits="userSpaceOnUse">
<stop stop-color="#EFEFEF"/>
<stop offset="0.442308" stop-color="#6D6D6D"/>
<stop offset="1" stop-color="#6D6D6D"/>
</linearGradient>
</defs>
</svg>
