<svg width="124" height="169" viewBox="0 0 124 169" fill="none" xmlns="http://www.w3.org/2000/svg">
<g filter="url(#filter0_i_6506_942)">
<path d="M103.6 147.875H93.7996L103.6 169H65.0996L61.5996 165.479L58.0996 169H19.5996L29.3996 147.875H19.5996V105.625L29.3996 84.5H58.0996L61.5996 88.0208L65.0996 84.5H93.7996L103.6 105.625V147.875Z" fill="url(#paint0_linear_6506_942)"/>
<path d="M70.7 70.4167L61.6 77.4583L52.5 70.4167L61.6 63.375L70.7 70.4167Z" fill="url(#paint1_linear_6506_942)"/>
<path d="M103.6 42.25L123.2 84.5H93.8L103.6 63.375L84 21.125H39.2L19.6 63.375L29.4 84.5H0L19.6 42.25H0L19.6 0H103.6L123.2 42.25H103.6Z" fill="url(#paint2_linear_6506_942)"/>
</g>
<defs>
<filter id="filter0_i_6506_942" x="0" y="-2" width="123.199" height="171" filterUnits="userSpaceOnUse" color-interpolation-filters="sRGB">
<feFlood flood-opacity="0" result="BackgroundImageFix"/>
<feBlend mode="normal" in="SourceGraphic" in2="BackgroundImageFix" result="shape"/>
<feColorMatrix in="SourceAlpha" type="matrix" values="0 0 0 0 0 0 0 0 0 0 0 0 0 0 0 0 0 0 127 0" result="hardAlpha"/>
<feOffset dy="-2"/>
<feGaussianBlur stdDeviation="2.5"/>
<feComposite in2="hardAlpha" operator="arithmetic" k2="-1" k3="1"/>
<feColorMatrix type="matrix" values="0 0 0 0 1 0 0 0 0 0.854902 0 0 0 0 0.929412 0 0 0 1 0"/>
<feBlend mode="normal" in2="shape" result="effect1_innerShadow_6506_942"/>
</filter>
<linearGradient id="paint0_linear_6506_942" x1="61.5996" y1="84.5" x2="61.5996" y2="169" gradientUnits="userSpaceOnUse">
<stop stop-color="#FFDAED"/>
<stop offset="0.442308" stop-color="#FF69B4"/>
<stop offset="1" stop-color="#FF69B4"/>
</linearGradient>
<linearGradient id="paint1_linear_6506_942" x1="61.6" y1="63.375" x2="61.6" y2="77.4583" gradientUnits="userSpaceOnUse">
<stop stop-color="#FFDAED"/>
<stop offset="0.442308" stop-color="#FF69B4"/>
<stop offset="1" stop-color="#FF69B4"/>
</linearGradient>
<linearGradient id="paint2_linear_6506_942" x1="61.6" y1="0" x2="61.6" y2="84.5" gradientUnits="userSpaceOnUse">
<stop stop-color="#FFDAED"/>
<stop offset="0.442308" stop-color="#FF69B4"/>
<stop offset="1" stop-color="#FF69B4"/>
</linearGradient>
</defs>
</svg>
