<svg width="12" height="24" viewBox="0 0 12 24" fill="none" xmlns="http://www.w3.org/2000/svg">
<path d="M12 21H10.6L12 24H6.5L6 23.5L5.5 24H0L1.4 21H0V15L1.4 12H5.5L6 12.5L6.5 12H10.6L12 15V21Z" fill="#FF0099"/>
<path d="M8.13999 11H6H3.85999L6 10L8.13999 11Z" fill="#FF0099"/>
<path d="M1.5 12H0V8C0.158383 7.86801 0.320734 7.743 0.485352 7.62305L1.5 12Z" fill="#FF0099"/>
<path d="M11.5127 7.62305C11.6778 7.74328 11.8412 7.86767 12 8V12H10.5L11.5127 7.62305Z" fill="#FF0099"/>
<path d="M0 6C3.47568 3.1036 8.52432 3.1036 12 6V7C11.9048 6.92064 11.8075 6.84455 11.71 6.76953C11.7074 6.76755 11.7057 6.76565 11.7031 6.76367C11.6311 6.70837 11.5576 6.65547 11.4844 6.60254C11.4468 6.57535 11.41 6.54707 11.3721 6.52051C11.2987 6.4691 11.2239 6.42016 11.1494 6.37109C11.1109 6.34573 11.073 6.31966 11.0342 6.29492C10.969 6.25335 10.9029 6.21363 10.8369 6.17383C10.7875 6.14399 10.7383 6.11381 10.6885 6.08496C10.6216 6.04629 10.5539 6.00954 10.4863 5.97266C10.4399 5.94729 10.3935 5.92198 10.3467 5.89746C10.2693 5.85691 10.1915 5.81754 10.1133 5.7793C10.0782 5.76215 10.0431 5.7452 10.0078 5.72852C9.9152 5.68468 9.8222 5.6422 9.72852 5.60156C9.70804 5.59268 9.68752 5.58393 9.66699 5.5752C9.57751 5.53715 9.48784 5.49998 9.39746 5.46484C9.35308 5.44758 9.30826 5.4316 9.26367 5.41504C9.19129 5.38816 9.11879 5.36194 9.0459 5.33691C8.99943 5.32095 8.95291 5.30525 8.90625 5.29004C8.81735 5.26108 8.72822 5.23326 8.63867 5.20703C8.6185 5.20112 8.59833 5.19523 8.57812 5.18945C8.47498 5.15999 8.37148 5.1323 8.26758 5.10645C8.24098 5.09982 8.21414 5.09427 8.1875 5.08789C8.09942 5.06679 8.01139 5.04586 7.92285 5.02734C7.85595 5.01335 7.78881 5.0008 7.72168 4.98828C7.66504 4.97772 7.60854 4.96654 7.55176 4.95703C7.48226 4.94539 7.41247 4.93585 7.34277 4.92578C7.27964 4.91667 7.21659 4.90723 7.15332 4.89941C7.11075 4.89415 7.06802 4.89042 7.02539 4.88574C6.93559 4.87589 6.84586 4.86565 6.75586 4.8584C6.74869 4.85782 6.74154 4.85701 6.73438 4.85645C6.24982 4.8185 5.76292 4.81818 5.27832 4.85547C5.26595 4.85642 5.25358 4.8574 5.24121 4.8584C5.15644 4.86526 5.0719 4.87463 4.9873 4.88379C4.93881 4.88904 4.89022 4.89341 4.8418 4.89941C4.7847 4.9065 4.72788 4.91569 4.6709 4.92383C4.59436 4.93476 4.51771 4.94518 4.44141 4.95801C4.39275 4.96619 4.34445 4.9764 4.2959 4.98535C4.21902 4.99953 4.14201 5.01319 4.06543 5.0293C4.00671 5.04165 3.94817 5.05487 3.88965 5.06836C3.82282 5.08376 3.756 5.09932 3.68945 5.11621C3.62772 5.13188 3.56635 5.14907 3.50488 5.16602C3.43936 5.18408 3.3738 5.20217 3.30859 5.22168C3.2465 5.24027 3.18483 5.26037 3.12305 5.28027C3.06165 5.30005 3.00052 5.32072 2.93945 5.3418C2.87682 5.36342 2.81421 5.38522 2.75195 5.4082C2.69449 5.42942 2.63721 5.45125 2.58008 5.47363C2.51255 5.50009 2.44496 5.5266 2.37793 5.55469C2.32298 5.57771 2.26846 5.60186 2.21387 5.62598C2.14558 5.65614 2.07747 5.68688 2.00977 5.71875C1.95936 5.74248 1.90944 5.76732 1.85938 5.79199C1.79468 5.82387 1.73012 5.85618 1.66602 5.88965C1.60373 5.92216 1.54218 5.95622 1.48047 5.99023C1.42833 6.01897 1.37592 6.04734 1.32422 6.07715C1.25729 6.11573 1.19118 6.15592 1.125 6.19629C1.07593 6.22622 1.02618 6.25521 0.977539 6.28613C0.911448 6.32814 0.846516 6.37219 0.78125 6.41602C0.734018 6.44773 0.686432 6.47906 0.639648 6.51172C0.57518 6.55673 0.51183 6.60358 0.448242 6.65039C0.401445 6.68484 0.353921 6.71848 0.307617 6.75391C0.300999 6.75897 0.294694 6.76445 0.288086 6.76953C0.19113 6.84414 0.0946844 6.9211 0 7V6Z" fill="#FF0099"/>
<path d="M12 3V5C8.52432 2.1036 3.47568 2.1036 0 5V3L3.40039 0H8.59961L12 3Z" fill="#FF0099"/>
</svg>
