<svg width="18" height="12" viewBox="0 0 18 12" fill="none" xmlns="http://www.w3.org/2000/svg">
<g clip-path="url(#clip0_4099_210188)">
<path d="M0 0H18V12H0V0Z" fill="#10338C"/>
<path d="M7.80047 5.99312C7.81099 5.98259 7.81801 5.97207 7.82854 5.96154C7.82152 5.97207 7.81099 5.98259 7.80047 5.99312ZM6.60047 7.46329L6.98643 8.2668L7.8531 8.0668L7.46713 8.8668L8.16538 9.42119L7.2952 9.61768L7.29871 10.5089L6.60047 9.95101L5.90573 10.5089L5.90924 9.61768L5.03906 9.42119L5.73731 8.8668L5.34783 8.0668L6.21801 8.2668L6.60047 7.46329ZM13.5443 8.46329L13.7268 8.84575L14.1408 8.75101L13.9549 9.13347L14.2882 9.39663L13.8742 9.48786V9.91593L13.5443 9.64926L13.211 9.91593L13.2145 9.48786L12.8005 9.39663L13.1338 9.13347L12.9478 8.75101L13.3619 8.84575L13.5443 8.46329ZM11.8391 4.39312L12.0215 4.77558L12.4356 4.68084L12.2496 5.06329L12.5829 5.32645L12.1689 5.42119V5.84575L11.8391 5.57908L11.5057 5.84575L11.5092 5.42119L11.0917 5.32645L11.425 5.06329L11.2391 4.68084L11.6531 4.77558L11.8391 4.39312ZM13.5443 2.07031L13.7268 2.45277L14.1408 2.35803L13.9549 2.74049L14.2882 3.00365L13.8742 3.09838V3.52294L13.5443 3.25628L13.211 3.52294L13.2145 3.09838L12.8005 3.00365L13.1338 2.74049L12.9478 2.35803L13.3619 2.45277L13.5443 2.07031ZM15.0356 3.81417L15.218 4.19663L15.632 4.10189L15.4461 4.48435L15.7794 4.7475L15.3654 4.83873V5.2668L15.0356 5.00014L14.7022 5.2668V4.83873L14.2882 4.7475L14.6215 4.48435L14.4356 4.10189L14.8496 4.19663L15.0356 3.81417ZM13.9689 5.84575L14.1127 6.29136H14.5794L14.2005 6.56505L14.3478 7.01066L13.9689 6.73347L13.5899 7.01066L13.7338 6.56505L13.3584 6.29136H13.825L13.9689 5.84575Z" fill="white"/>
<path d="M8.94339 0V1.07368L7.36094 1.95439H8.94339V4.03509H6.86971L8.94339 5.18597V5.98947H8.00655L5.4276 4.55439V5.98947H3.47673V4.28421L0.41006 5.98947H-0.0390625V4.91579L1.5469 4.03509H-0.0390625V1.95439H2.03462L-0.0390625 0.8V0H0.89778L3.47673 1.43158V0H5.4276V1.70526L8.49778 0H8.94339Z" fill="white"/>
<path d="M5.01357 0H3.89076V2.43158H-0.0390625V3.55439H3.89076V5.98947H5.01357V3.55439H8.94339V2.43158H5.01357V0Z" fill="#D80027"/>
<path d="M5.42188 4.03906L8.93766 5.99345V5.43906L6.41837 4.03906H5.42188Z" fill="#0052B4"/>
<path d="M5.42188 4.03906L8.93766 5.99345V5.43906L6.41837 4.03906H5.42188Z" fill="white"/>
<path d="M5.4276 4.03906L8.94339 5.99345V5.43906L6.4241 4.03906H5.4276ZM2.48374 4.03906L-0.0390625 5.43906V5.99345L3.47673 4.03906H2.48374Z" fill="#D80027"/>
<path d="M3.47673 1.95439L-0.0390625 0V0.550877L2.48374 1.95439H3.47673Z" fill="#0052B4"/>
<path d="M3.47673 1.95439L-0.0390625 0V0.550877L2.48374 1.95439H3.47673Z" fill="white"/>
<path d="M3.47673 1.95439L-0.0390625 0V0.550877L2.48374 1.95439H3.47673ZM6.4241 1.95439L8.94339 0.550877V0L5.4276 1.95439H6.4241Z" fill="#D80027"/>
</g>
<defs>
<clipPath id="clip0_4099_210188">
<rect width="18" height="12" fill="white"/>
</clipPath>
</defs>
</svg>
