<svg width="18" height="12" viewBox="0 0 18 12" fill="none" xmlns="http://www.w3.org/2000/svg">
<g clip-path="url(#clip0_4099_208702)">
<path d="M0 0H18V12H0V0Z" fill="white"/>
<path d="M0 0H18V0.922807H0V0ZM0 1.84561H18V2.76842H0V1.84561ZM0 3.69123H18V4.61404H0V3.69123ZM0 5.53684H18V6.45965H0V5.53684ZM0 7.38596H18V8.30877H0V7.38596ZM0 9.23158H18V10.1544H0V9.23158ZM0 11.0772H18V12H0V11.0772Z" fill="#D80027"/>
<path d="M0 0H9V6.45965H0V0Z" fill="#2E52B2"/>
<path d="M1.67196 4.87421L1.53161 4.42508L1.37722 4.87421H0.914062L1.2895 5.14438L1.14915 5.5935L1.53161 5.31631L1.90354 5.5935L1.75968 5.14438L2.14213 4.87421H1.67196ZM3.6474 4.87421L3.50354 4.42508L3.35617 4.87421H2.89301L3.26845 5.14438L3.1281 5.5935L3.50354 5.31631L3.88248 5.5935L3.74213 5.14438L4.11757 4.87421H3.6474ZM5.62985 4.87421L5.47897 4.42508L5.33862 4.87421H4.86494L5.25091 5.14438L5.10354 5.5935L5.47897 5.31631L5.86494 5.5935L5.71757 5.14438L6.09301 4.87421H5.62985ZM7.60178 4.87421L7.46143 4.42508L7.31406 4.87421H6.8474L7.22634 5.14438L7.08599 5.5935L7.46143 5.31631L7.84038 5.5935L7.6895 5.14438L8.07547 4.87421H7.60178ZM3.50354 2.64263L3.35617 3.09175H2.89301L3.26845 3.36894L3.1281 3.81105L3.50354 3.53736L3.88248 3.81105L3.74213 3.36894L4.11757 3.09175H3.6474L3.50354 2.64263ZM1.53161 2.64263L1.37722 3.09175H0.914062L1.2895 3.36894L1.14915 3.81105L1.53161 3.53736L1.90354 3.81105L1.75968 3.36894L2.14213 3.09175H1.67196L1.53161 2.64263ZM5.47897 2.64263L5.33862 3.09175H4.86494L5.25091 3.36894L5.10354 3.81105L5.47897 3.53736L5.86494 3.81105L5.71757 3.36894L6.09301 3.09175H5.62985L5.47897 2.64263ZM7.46143 2.64263L7.31406 3.09175H6.8474L7.22634 3.36894L7.08599 3.81105L7.46143 3.53736L7.84038 3.81105L7.6895 3.36894L8.07547 3.09175H7.60178L7.46143 2.64263ZM1.53161 0.867188L1.37722 1.30929H0.914062L1.2895 1.58649L1.14915 2.0321L1.53161 1.75491L1.90354 2.0321L1.75968 1.58649L2.14213 1.30929H1.67196L1.53161 0.867188ZM3.50354 0.867188L3.35617 1.30929H2.89301L3.26845 1.58649L3.1281 2.0321L3.50354 1.75491L3.88248 2.0321L3.74213 1.58649L4.11757 1.30929H3.6474L3.50354 0.867188ZM5.47897 0.867188L5.33862 1.30929H4.86494L5.25091 1.58649L5.10354 2.0321L5.47897 1.75491L5.86494 2.0321L5.71757 1.58649L6.09301 1.30929H5.62985L5.47897 0.867188ZM7.46143 0.867188L7.31406 1.30929H6.8474L7.22634 1.58649L7.08599 2.0321L7.46143 1.75491L7.84038 2.0321L7.6895 1.58649L8.07547 1.30929H7.60178L7.46143 0.867188Z" fill="white"/>
</g>
<defs>
<clipPath id="clip0_4099_208702">
<rect width="18" height="12" fill="white"/>
</clipPath>
</defs>
</svg>
