<svg width="18" height="12" viewBox="0 0 18 12" fill="none" xmlns="http://www.w3.org/2000/svg">
<g clip-path="url(#clip0_4099_210072)">
<path d="M0 0H18V12H0V0Z" fill="#009B3A"/>
<path d="M8.998 0.679688L16.1875 5.99197L8.998 11.3007L1.77344 5.99197L8.998 0.679688Z" fill="#FEDF00"/>
<path d="M9.00074 8.82179C10.5588 8.82179 11.8218 7.55876 11.8218 6.00074C11.8218 4.44272 10.5588 3.17969 9.00074 3.17969C7.44272 3.17969 6.17969 4.44272 6.17969 6.00074C6.17969 7.55876 7.44272 8.82179 9.00074 8.82179Z" fill="white"/>
<path d="M7.57889 5.81318C7.09117 5.81318 6.61749 5.88687 6.17188 6.02371C6.19293 7.56406 7.44556 8.80617 8.98942 8.80617C9.9438 8.80617 10.7894 8.32897 11.2982 7.60266C10.4245 6.51494 9.08065 5.81318 7.57889 5.81318ZM11.7543 6.52547C11.7859 6.35003 11.807 6.17108 11.807 5.98512C11.807 4.42722 10.5438 3.16406 8.98591 3.16406C7.82451 3.16406 6.82802 3.86933 6.39293 4.86933C6.77538 4.79213 7.16837 4.75003 7.57187 4.75003C9.21398 4.75354 10.6947 5.43424 11.7543 6.52547Z" fill="#002776"/>
</g>
<defs>
<clipPath id="clip0_4099_210072">
<rect width="18" height="12" fill="white"/>
</clipPath>
</defs>
</svg>
