<svg width="18" height="12" viewBox="0 0 18 12" fill="none" xmlns="http://www.w3.org/2000/svg">
<g clip-path="url(#clip0_4099_209771)">
<path d="M0 0H18V12.0001H0V0Z" fill="white"/>
<path d="M10.125 0H7.875V4.87498H0V7.12498H7.875V12H10.125V7.12498H18V4.87498H10.125V0Z" fill="#D80027"/>
<path d="M13.8406 8.08594L17.9966 10.3949V8.08594H13.8406ZM10.9531 8.08594L17.9966 11.999V10.8925L12.9449 8.08594H10.9531ZM16.1205 11.999L10.9531 9.12797V11.999H16.1205Z" fill="#0052B4"/>
<path d="M10.9531 8.08594L17.9966 11.999V10.8925L12.9449 8.08594H10.9531Z" fill="white"/>
<path d="M10.9531 8.08594L17.9966 11.999V10.8925L12.9449 8.08594H10.9531Z" fill="#D80027"/>
<path d="M3.17605 8.08594L0 9.85043V8.08594H3.17605ZM7.04348 8.58354V11.999H0.896168L7.04348 8.58354Z" fill="#0052B4"/>
<path d="M5.05171 8.08594L0 10.8925V11.999L7.04348 8.08594H5.05171Z" fill="#D80027"/>
<path d="M4.156 3.91303L0 1.60411V3.91303H4.156ZM7.04348 3.91303L0 0V1.10651L5.05171 3.91303H7.04348ZM1.87615 0L7.04348 2.871V0H1.87615Z" fill="#0052B4"/>
<path d="M7.04348 3.91303L0 0V1.10651L5.05171 3.91303H7.04348Z" fill="white"/>
<path d="M7.04348 3.91303L0 0V1.10651L5.05171 3.91303H7.04348Z" fill="#D80027"/>
<path d="M14.8206 3.91307L17.9966 2.14857V3.91307H14.8206ZM10.9531 3.41546V0H17.1004L10.9531 3.41546Z" fill="#0052B4"/>
<path d="M12.9449 3.91303L17.9966 1.10651V0L10.9531 3.91303H12.9449Z" fill="#D80027"/>
</g>
<defs>
<clipPath id="clip0_4099_209771">
<rect width="18" height="12" fill="white"/>
</clipPath>
</defs>
</svg>
